<svg xmlns="http://www.w3.org/2000/svg" data-name="Layer 1" viewBox="0 0 3141.07 1752.29" id="business-direction"><path fill="#56b1da" d="M3295.59 1884a607.22 607.22 0 0 0 27.88-182.41c0-277.33-185.83-511.24-439.75-584a369.43 369.43 0 0 0 27.93-141.33c0-204.66-165.91-370.57-370.57-370.57a370.82 370.82 0 0 0-101.45 14.06c-137-220.43-381.33-367.22-660-367.22-360.32 0-663.29 245.43-751 578.22-417.6 12.88-752.19 355.41-752.19 776.13a774.63 774.63 0 0 0 51 277.17Z" transform="translate(-182.4 -131.71)"></path><path fill="none" stroke="#3b3e54" stroke-linecap="round" stroke-linejoin="round" stroke-width="12.59" d="M959.16 809.01v-265.9M959.16 670.01l-44.38-44.39M959.16 714.05l46.02-46.02"></path><path fill="#fe5e5a" d="M1141.57 606.41v136.82S1113 712.6 1113 674.82s28.57-68.41 28.57-68.41Z" transform="translate(-182.4 -131.71)"></path><path fill="#fe9391" d="M1170.11 674.82c0 37.78-28.54 68.41-28.54 68.41V606.41s28.54 30.59 28.54 68.41Z" transform="translate(-182.4 -131.71)"></path><path fill="#fe5e5a" d="m1029.07 689.59 84 84s-36.31-1.28-59.49-24.46-24.51-59.54-24.51-59.54Z" transform="translate(-182.4 -131.71)"></path><path fill="#fe9391" d="M1088.56 714.05c23.18 23.18 24.46 59.49 24.46 59.49l-84-84s36.36 1.33 59.54 24.51ZM1177.89 809.43l78.51-78.51s-1.2 34-22.88 55.63-55.63 22.88-55.63 22.88Z" transform="translate(-182.4 -131.71)"></path><path fill="#fe5e5a" d="M1200.77 753.8c21.68-21.68 55.63-22.88 55.63-22.88l-78.51 78.51s1.2-33.95 22.88-55.63Z" transform="translate(-182.4 -131.71)"></path><path fill="#3d7e9c" d="M471.12 766.27h2375.55v317.69H471.12z"></path><path fill="#3d7e9c" d="m3055.64 925.12-248.18-268.01v536.02l248.18-268.01z"></path><path fill="none" stroke="#3b3e54" stroke-linecap="round" stroke-linejoin="round" stroke-width="12.59" d="M262.88 1368.6v-325.25M262.88 1149.24l-44.39-44.39M262.88 1302.18l-44.39-44.39M262.88 1196.28l46.01-46.02"></path><path fill="#fe5e5a" d="M445.28 1106.64v136.83s-28.54-30.63-28.54-68.41 28.54-68.42 28.54-68.42Z" transform="translate(-182.4 -131.71)"></path><path fill="#fe9391" d="M473.82 1175.05c0 37.78-28.54 68.41-28.54 68.41v-136.82s28.54 30.63 28.54 68.41Z" transform="translate(-182.4 -131.71)"></path><path fill="#fe5e5a" d="m332.79 1168.82 84 84s-36.31-1.28-59.49-24.46-24.51-59.54-24.51-59.54Z" transform="translate(-182.4 -131.71)"></path><path fill="#fe9391" d="M392.27 1193.29c23.18 23.18 24.46 59.49 24.46 59.49l-84-84s36.36 1.32 59.54 24.51Z" transform="translate(-182.4 -131.71)"></path><path fill="#fe5e5a" d="m332.79 1321.39 84 84s-36.31-1.28-59.49-24.46-24.51-59.54-24.51-59.54Z" transform="translate(-182.4 -131.71)"></path><path fill="#fe9391" d="M392.27 1345.85c23.18 23.18 24.46 59.49 24.46 59.49l-84-84s36.36 1.33 59.54 24.51ZM481.6 1291.66l78.51-78.51s-1.2 34-22.88 55.63-55.63 22.88-55.63 22.88Z" transform="translate(-182.4 -131.71)"></path><path fill="#fe5e5a" d="M504.48 1236c21.68-21.68 55.63-22.88 55.63-22.88l-78.51 78.51s1.2-33.92 22.88-55.63Z" transform="translate(-182.4 -131.71)"></path><path fill="none" stroke="#3b3e54" stroke-linecap="round" stroke-linejoin="round" stroke-width="12.59" d="M2722.57 1343.68v-265.9M2722.57 1204.67l-44.39-44.39M2722.57 1248.71l46.01-46.01"></path><path fill="#fe5e5a" d="M2905 1141.07v136.83s-28.54-30.63-28.54-68.41 28.54-68.42 28.54-68.42Z" transform="translate(-182.4 -131.71)"></path><path fill="#fe9391" d="M2933.51 1209.49c0 37.78-28.54 68.41-28.54 68.41v-136.83s28.54 30.63 28.54 68.42Z" transform="translate(-182.4 -131.71)"></path><path fill="#fe5e5a" d="m2792.48 1224.26 84 84s-36.31-1.28-59.49-24.46-24.51-59.54-24.51-59.54Z" transform="translate(-182.4 -131.71)"></path><path fill="#fe9391" d="M2852 1248.72c23.18 23.18 24.46 59.49 24.46 59.49l-84-84s36.32 1.33 59.54 24.51ZM2941.29 1344.1l78.51-78.51s-1.2 34-22.88 55.63-55.63 22.88-55.63 22.88Z" transform="translate(-182.4 -131.71)"></path><path fill="#fe5e5a" d="M2964.17 1288.46c21.68-21.68 55.63-22.88 55.63-22.88l-78.51 78.51s1.2-33.95 22.88-55.63Z" transform="translate(-182.4 -131.71)"></path><path fill="#3d7e9c" d="M2394 1410.92c-98.76 0-182.05 66.24-207.88 156.72h415.75c-25.78-90.48-109.07-156.72-207.87-156.72ZM2961.16 1410.92c-98.76 0-182.05 66.24-207.88 156.72H3169c-25.79-90.48-109.08-156.72-207.84-156.72Z" transform="translate(-182.4 -131.71)"></path><path fill="#3d7e9c" d="M2691 1343.79c-141.07 0-260 94.62-296.93 223.85h593.83C2951 1438.4 2832 1343.79 2691 1343.79Z" transform="translate(-182.4 -131.71)"></path><path fill="#419bc4" d="M682.78 1353.55c-134.92 0-248.7 90.49-284 214.08h567.98C931.48 1444 817.7 1353.55 682.78 1353.55ZM1457.51 1353.55c-134.92 0-248.7 90.49-284 214.08h567.95c-35.25-123.63-149.03-214.08-283.95-214.08Z" transform="translate(-182.4 -131.71)"></path><path fill="#419bc4" d="M1088.41 1261.84c-192.72 0-355.24 129.25-405.63 305.8H1494c-50.35-176.55-212.87-305.8-405.59-305.8Z" transform="translate(-182.4 -131.71)"></path><rect width="1788.37" height="112.18" x="723.41" y="1430.84" fill="#458fb0" rx="32.38" ry="32.38"></rect><path fill="#d0f1f2" d="M409.94 205.19c-108.11 0-199.27 72.5-227.54 171.54h455.08C609.22 277.7 518 205.19 409.94 205.19ZM1030.7 205.19c-108.11 0-199.27 72.5-227.54 171.54h455.08C1230 277.7 1138.81 205.19 1030.7 205.19Z" transform="translate(-182.4 -131.71)"></path><path fill="#d0f1f2" d="M735 131.71c-154.42 0-284.64 103.57-325 245h650c-40.4-141.44-170.63-245-325-245Z" transform="translate(-182.4 -131.71)"></path><path fill="#fff" d="M446.45 352.12a146.22 146.22 0 0 0-140.56 106H587a146.22 146.22 0 0 0-140.55-106ZM829.91 352.12a146.22 146.22 0 0 0-140.56 106h281.11a146.22 146.22 0 0 0-140.55-106Z" transform="translate(-182.4 -131.71)"></path><path fill="#fff" d="M647.22 306.72c-95.39 0-175.83 64-200.77 151.36H848c-25-87.38-105.39-151.36-200.78-151.36Z" transform="translate(-182.4 -131.71)"></path><path fill="#d0f1f2" d="M2694.9 393.29a119.27 119.27 0 0 0-114.65 86.44h229.31a119.27 119.27 0 0 0-114.66-86.44ZM3007.69 393.29A119.27 119.27 0 0 0 2893 479.73h229.31a119.27 119.27 0 0 0-114.62-86.44Z" transform="translate(-182.4 -131.71)"></path><path fill="#d0f1f2" d="M2858.67 356.27a170.36 170.36 0 0 0-163.77 123.46h327.54a170.36 170.36 0 0 0-163.77-123.46Z" transform="translate(-182.4 -131.71)"></path><path fill="#fff" d="M1333.5 674.82a29.93 29.93 0 0 0 29.93-29.93 29.93 29.93 0 0 0 29.93 29.93 29.93 29.93 0 0 0-29.93 29.93 29.93 29.93 0 0 0-29.93-29.93ZM550.53 1460.6a29.93 29.93 0 0 0 29.93-29.93 29.93 29.93 0 0 0 29.93 29.93 29.93 29.93 0 0 0-29.93 29.93 29.93 29.93 0 0 0-29.93-29.93ZM2958 1119.76a29.93 29.93 0 0 0 29.93-29.93 29.93 29.93 0 0 0 29.93 29.93 29.93 29.93 0 0 0-29.93 29.93 29.93 29.93 0 0 0-29.93-29.93ZM1295.59 743.23a16.7 16.7 0 0 0 16.7-16.7 16.7 16.7 0 0 0 16.7 16.7 16.7 16.7 0 0 0-16.7 16.7 16.7 16.7 0 0 0-16.7-16.7ZM2801.75 1469.65a16.7 16.7 0 0 0 16.7-16.7 16.7 16.7 0 0 0 16.7 16.7 16.7 16.7 0 0 0-16.7 16.7 16.7 16.7 0 0 0-16.7-16.7ZM3055.89 1029.4a16.7 16.7 0 0 0 16.7-16.7 16.7 16.7 0 0 0 16.7 16.7 16.7 16.7 0 0 0-16.7 16.7 16.7 16.7 0 0 0-16.7-16.7ZM729.43 986.5a16.7 16.7 0 0 0 16.7-16.7 16.7 16.7 0 0 0 16.7 16.7 16.7 16.7 0 0 0-16.7 16.7 16.7 16.7 0 0 0-16.7-16.7ZM727.28 1533.36a7.93 7.93 0 0 1 1.53-12.18L777.1 1491a7.92 7.92 0 0 1 8.4 13.43l-48.28 30.21a7.92 7.92 0 0 1-9.94-1.28Z" transform="translate(-182.4 -131.71)"></path><path fill="#1a1c2e" d="M728.08 1518.93s-18.14 10.48-15.17 14.42 50 56.57 52.69 54.62c9.08-6.68-23.19-55.6-27.91-58.92s-7.02-11.69-9.61-10.12Z" transform="translate(-182.4 -131.71)"></path><path fill="#fff" d="M1095.56 913.66s6.23-40.36-.73-47.93-17.24 30.17-7.93 53Z" transform="translate(-182.4 -131.71)"></path><path fill="#292b3b" d="M1104.83 909.07c-7.27-1.44-14.77-2.37-22.29-3.37-7.44 114.4-64.29 176.81-100.75 30.44-5.58-22.39-17.56-10.5-26.78-3-1.78-3.21-1.74-3.26 0 0-9.22 7.5-11.64 4.88-2.38 27.29 60.59 146.57 152.67 91.12 152.2-51.36Z" transform="translate(-182.4 -131.71)"></path><path fill="#fff" d="M969.1 1616a7.93 7.93 0 0 1-7.77-9.5l11.36-55.81a7.92 7.92 0 1 1 15.52 3.16l-11.36 55.81a7.92 7.92 0 0 1-7.75 6.34Z" transform="translate(-182.4 -131.71)"></path><path fill="#3b3e54" d="M986.53 1583.58a206.88 206.88 0 0 1-25.22-2.32c25.1-134.15 44.09-314.21-23-439.6q30.56-15 61.39-29.44c49.02 109.25 7.25 355.95-13.17 471.36Z" transform="translate(-182.4 -131.71)"></path><path fill="#3b3e54" d="M762.09 1527.72c-5.58-6.81-11-13.72-16-21 153-102.58 205.36-199.36 173.66-387.06 22.86-3.94 45.83-7.19 68.81-10.34-5.61 218.59-57.72 290.32-226.47 418.4Z" transform="translate(-182.4 -131.71)"></path><path fill="#1a1c2e" d="M959.19 1605.51s-4.9 20.36 0 20.93 75.48 2.71 75.89-.57c1.41-11.18-56.28-21.49-61.94-20.36s-13.31-2.95-13.95 0Z" transform="translate(-182.4 -131.71)"></path><path fill="#292b3b" d="M1018 1157.81c-13.37-4.47-40.93 2.7-54.23 0-19.58-4-29.22-2.51-48.58-1.37-2.48-60.74-.37-124.28-4.8-183.83-1-12.52-1.59-20 .74-29.37 3.14-12.63 9.72-21.35 18.25-26 10.46-5.73 23.83-5.28 37.35 1.63a30.32 30.32 0 0 1 5.87 3.55c8 6.13 15.41 18.1 16.59 40.68 3.01 56.39 18.2 136.11 28.81 194.71Z" transform="translate(-182.4 -131.71)"></path><path fill="#bef6f7" d="m972.62 922.44-1.15 38-1.4 47.73-19.84-44.37-20.83-46.54c10.46-5.73 23.83-5.28 37.35 1.63a30.32 30.32 0 0 1 5.87 3.55Z" transform="translate(-182.4 -131.71)"></path><path fill="#fff" d="M932.29 880.47c13.06 20.08 37.64 27.26 49.92 19.28s7.59-28.11-5.47-48.19-29.66-23.83-41.93-15.85-15.59 24.67-2.52 44.76Z" transform="translate(-182.4 -131.71)"></path><path fill="#fff" d="M927.74 893.26c3 4.67 11.57 7.63 15 5.43s1.77-6.54-1.27-11.22-8.63-7.26-12-5.06-4.77 6.18-1.73 10.85Z" transform="translate(-182.4 -131.71)"></path><path fill="#fff" d="m935.2 877.14 25-2.45c.34 3.43 3 36.08 1.69 48.39-.92 3.79-7.16 5.53-13.95 3.88-6.1-1.48-10.51-5.19-10.69-8.68.75-7.37-.89-29.16-2.05-41.14Z" transform="translate(-182.4 -131.71)"></path><path fill="#1a1c2e" d="M944.52 887.35c3.69-4 7.16-.4 16.05 4.59s24.77 3.7 25.87-17.09c.7-13.25 8.17 8.41 8.18 8.43 1.5 10.87-1.44 17.44-8.72 22.17-10.05 6.54-26.09 5.61-40.31-2.88-2.26-5.32-3.59-12.5-1.07-15.22Z" transform="translate(-182.4 -131.71)"></path><path fill="#1a1c2e" d="m987.12 874.07-.85.45c-4.37 2.37-24.21 13.48-26.27 21.72-2.26 9.23 10.67-3.57 14.58-9.48s8.65-5.12 12.9-6.37 6.24-6.56-.36-6.32ZM921.05 869.57s-4.12-15.63 2.92-26.82 27-23 42.73-7.93c0 0 10.22 11.74-5 22.87s-17.06.91-20.59 13.39-14 10.45-14.51 13.14Z" transform="translate(-182.4 -131.71)"></path><path fill="#fe5e5a" d="m789.08 828.74-1.41 47.74-19.84-44.37.78-28.97h8.76l11.71 25.6z"></path><path fill="#292b3b" d="M619.38 1148.18h111.64v146.41H619.38z" transform="rotate(-61.1 472.423 1310.058)"></path><path fill="none" stroke="#292b3b" stroke-linecap="round" stroke-linejoin="round" stroke-width="3.89" d="m495.88 1035.19 15.51-28.09 41.37 22.84-17.86 32.35"></path><path fill="#fff" d="M733.36 1112.89S721 1154 711 1158s-2.71-36.38 16.43-53.85Z" transform="translate(-182.4 -131.71)"></path><path fill="#292b3b" d="M735.39 1119.76c-5.45-3.71-10.69-7.56-15.89-11.53 67.44-87.66 86.85-114.21 185.43-164.94 15.08-7.76 18-4.87 23 8.74 2.73.16 2.68-.08 0 0 5 13.6 2.1 15.62-13.78 22.84-103.78 47.25-100.87 65.48-178.76 144.89Z" transform="translate(-182.4 -131.71)"></path><path fill="#fff" d="M2102.32 1616a7.93 7.93 0 0 1-7.77-9.5l11.36-55.81a7.92 7.92 0 1 1 15.52 3.16l-11.36 55.81a7.92 7.92 0 0 1-7.75 6.34Z" transform="translate(-182.4 -131.71)"></path><path fill="#1a1c2e" d="M2092.41 1605.51s-4.9 20.36 0 20.93 75.48 2.71 75.89-.57c1.41-11.18-56.28-21.49-61.94-20.36s-13.31-2.95-13.95 0Z" transform="translate(-182.4 -131.71)"></path><path fill="#fff" d="M2324.9 1150.39s41.7 10 46.29 19.74-36.17 4.78-54.7-13.35Z" transform="translate(-182.4 -131.71)"></path><path fill="#292b3b" d="M2330.63 1145.92a183.15 183.15 0 0 1-9.73 17.27c-95.23-61.73-140.16-99.5-135.14-217.8.77-18.09 3.81-18.24 18.12-16.37 1.14-2.66 1-2.71 0 0 14.31 1.87 15.31 7 13.7 23-10.5 104.88 37.35 133.56 113.05 193.9Z" transform="translate(-182.4 -131.71)"></path><path fill="#fff" d="M2203.47 1616a7.93 7.93 0 0 1-7.77-9.5l11.36-55.81a7.92 7.92 0 1 1 15.52 3.16l-11.36 55.81a7.92 7.92 0 0 1-7.75 6.34Z" transform="translate(-182.4 -131.71)"></path><path fill="#3b3e54" d="M2220.9 1583.58a206.88 206.88 0 0 1-25.22-2.32c25.1-134.15 44.09-314.21-23-439.6q30.56-15 61.39-29.44c49.02 109.25 7.25 355.95-13.17 471.36Z" transform="translate(-182.4 -131.71)"></path><path fill="#3b3e54" d="M2119.71 1590.07c-8.88-1.07-17.7-2.34-26.48-4 35.09-110.83 67.67-356.2 62.06-472.2 23.2.68 46.34 2.24 69.51 3.54-30.08 152-67.43 322.97-105.09 472.66Z" transform="translate(-182.4 -131.71)"></path><path fill="#1a1c2e" d="M2193.56 1605.51s-4.9 20.36 0 20.93 75.48 2.71 75.89-.57c1.41-11.18-56.28-21.49-61.94-20.36s-13.3-2.95-13.95 0Z" transform="translate(-182.4 -131.71)"></path><path fill="#292b3b" d="M2252.4 1157.81c-13.37-4.47-40.93 2.7-54.23 0-19.58-4-29.22-2.51-48.58-1.37-2.48-60.74-.37-124.28-4.8-183.83-1-12.52-1.59-20 .74-29.37 3.14-12.63 9.72-21.35 18.25-26 10.46-5.73 23.83-5.28 37.35 1.63a30.32 30.32 0 0 1 5.87 3.55c8 6.13 15.41 18.1 16.59 40.68 2.99 56.39 18.17 136.11 28.81 194.71Z" transform="translate(-182.4 -131.71)"></path><path fill="#bef6f7" d="m2207 922.44-1.15 38-1.4 47.73-19.84-44.37-20.84-46.55c10.46-5.73 23.83-5.28 37.35 1.63a30.32 30.32 0 0 1 5.88 3.56Z" transform="translate(-182.4 -131.71)"></path><path fill="#fff" d="M2164.53 882.67c15.12 18.58 40.32 23.11 51.68 13.87s4.57-28.75-10.56-47.34-32-20.55-43.38-11.31-12.86 26.19 2.26 44.78Z" transform="translate(-182.4 -131.71)"></path><path fill="#fff" d="M2161.36 895.87c3.52 4.33 12.32 6.36 15.45 3.81s1.06-6.69-2.46-11-9.35-6.31-12.48-3.76-4.03 6.62-.51 10.95Z" transform="translate(-182.4 -131.71)"></path><path fill="#fff" d="m2169.57 877.14 25-2.45c.34 3.43 3 36.08 1.69 48.39-.92 3.79-7.16 5.53-13.95 3.88-6.1-1.48-10.52-5.19-10.69-8.68.78-7.37-.88-29.16-2.05-41.14Z" transform="translate(-182.4 -131.71)"></path><path fill="#1a1c2e" d="M2177.43 888.2c3.25-4.36 7.08-1.15 16.45 2.86s25 1.05 23.91-19.74c-.71-13.25 9 7.49 9 7.51 2.65 10.64.42 17.49-6.32 23-9.3 7.57-25.35 8.35-40.38 1.42-2.8-5.07-4.88-12.07-2.66-15.05Z" transform="translate(-182.4 -131.71)"></path><path fill="#1a1c2e" d="m2218.38 870.48-.8.54c-4.1 2.82-22.65 16-23.78 24.38-1.27 9.42 10.23-4.68 13.49-11s8.06-6 12.15-7.7 5.47-7.16-1.06-6.22ZM2152.2 873s-5.76-15.1.05-27 24.36-25.74 41.65-12.43c0 0 11.41 10.58-2.52 23.27s-16.87 2.71-19 15.5-12.85 11.88-13 14.61Z" transform="translate(-182.4 -131.71)"></path><path fill="#fe5e5a" d="m2023.45 828.74-1.4 47.74-19.84-44.37.77-28.97h8.76l11.71 25.6z"></path><path fill="#fff" d="M2094.26 1179.51s22.4 36.56 18.73 46.71-28.93-22.23-29.19-48.15Z" transform="translate(-182.4 -131.71)"></path><path fill="#292b3b" d="M2101.47 1180.41a183.18 183.18 0 0 1-19.09 5.31c-23.57-111-28.57-169.49 58.71-249.5 13.35-12.24 15.61-10.19 24.39 1.27 2.69-1.07 2.63-1.2 0 0 8.78 11.46 5.88 15.76-6.61 26-81.65 66.58-68.15 120.71-57.4 216.92Z" transform="translate(-182.4 -131.71)"></path><path fill="#fff" d="M1802.53 1548.34a7.93 7.93 0 0 1 .15-12.27l44.55-35.48a7.92 7.92 0 1 1 9.87 12.39l-44.55 35.48a7.92 7.92 0 0 1-10.02-.12Z" transform="translate(-182.4 -131.71)"></path><path fill="#1a1c2e" d="M1801.69 1533.91s-16.83 12.46-13.44 16 56.12 50.54 58.54 48.3c8.26-7.66-29.34-52.62-34.4-55.38s-8.3-10.77-10.7-8.92Z" transform="translate(-182.4 -131.71)"></path><path fill="#fff" d="M2112.6 903s-.35-40.83-8.44-47.18-12.15 32.55.71 53.62Z" transform="translate(-182.4 -131.71)"></path><path fill="#292b3b" d="M2121 897c-7.41-.25-15 0-22.54.27 11.08 114.11-35 184.86-94.54 46.26-9.11-21.2-19-7.54-26.91 1.35-2.27-2.88-2.24-2.94 0 0-7.89 8.88-10.71 6.69 2.05 27.32 83.4 134.8 165.35 65.3 141.94-75.2Z" transform="translate(-182.4 -131.71)"></path><path fill="#fff" d="M1993.82 1616a7.93 7.93 0 0 1-7.77-9.5l11.36-55.81a7.92 7.92 0 1 1 15.52 3.16l-11.36 55.81a7.92 7.92 0 0 1-7.75 6.34Z" transform="translate(-182.4 -131.71)"></path><path fill="#3b3e54" d="M2011.25 1583.58a206.88 206.88 0 0 1-25.22-2.32c25.1-134.15 44.09-314.21-23-439.6q30.56-15 61.39-29.44c49.02 109.25 7.25 355.95-13.17 471.36Z" transform="translate(-182.4 -131.71)"></path><path fill="#3b3e54" d="M1836.48 1538.8c-6.32-6.13-12.45-12.39-18.23-19 140.43-119.24 181.47-221.33 128.72-404.23 22.26-6.5 44.72-12.33 67.2-18.06 19.12 217.76-24.53 294.93-177.69 441.29Z" transform="translate(-182.4 -131.71)"></path><path fill="#1a1c2e" d="M1983.91 1605.51s-4.9 20.36 0 20.93 75.48 2.71 75.89-.57c1.41-11.18-56.28-21.49-61.94-20.36s-13.3-2.95-13.95 0Z" transform="translate(-182.4 -131.71)"></path><path fill="#292b3b" d="M2042.75 1157.81c-13.37-4.47-40.93 2.7-54.23 0-19.58-4-29.22-2.51-48.58-1.37-2.48-60.74-.37-124.28-4.8-183.83-1-12.52-1.59-20 .74-29.37 3.14-12.63 9.72-21.35 18.25-26 10.46-5.73 23.83-5.28 37.35 1.63a30.32 30.32 0 0 1 5.87 3.55c8 6.13 15.41 18.1 16.59 40.68 2.99 56.39 18.17 136.11 28.81 194.71Z" transform="translate(-182.4 -131.71)"></path><path fill="#bef6f7" d="m1997.35 922.44-1.15 38-1.4 47.73-19.8-44.36-20.84-46.55c10.46-5.73 23.83-5.28 37.35 1.63a30.32 30.32 0 0 1 5.84 3.55Z" transform="translate(-182.4 -131.71)"></path><path fill="#fff" d="M1957 880.47c13.06 20.08 37.64 27.26 49.92 19.28s7.59-28.11-5.47-48.19-29.66-23.83-41.93-15.85-15.57 24.67-2.52 44.76Z" transform="translate(-182.4 -131.71)"></path><path fill="#fff" d="M1952.46 893.26c3 4.67 11.57 7.63 15 5.43s1.77-6.54-1.27-11.22-8.63-7.26-12-5.06-4.77 6.18-1.73 10.85Z" transform="translate(-182.4 -131.71)"></path><path fill="#fff" d="m1959.92 877.14 25-2.45c.34 3.43 3 36.08 1.69 48.39-.92 3.79-7.16 5.53-13.95 3.88-6.1-1.48-10.52-5.19-10.69-8.68.78-7.37-.88-29.16-2.05-41.14Z" transform="translate(-182.4 -131.71)"></path><path fill="#1a1c2e" d="M1969.25 887.35c3.69-4 7.16-.4 16.05 4.59s24.77 3.7 25.87-17.09c.7-13.25 8.17 8.41 8.18 8.43 1.5 10.87-1.44 17.44-8.72 22.17-10.05 6.54-26.09 5.61-40.31-2.88-2.27-5.32-3.59-12.5-1.07-15.22ZM1945.78 869.57s-4.12-15.63 2.92-26.82 27-23 42.73-7.93c0 0 10.22 11.74-5 22.87s-17.06.91-20.59 13.39-14 10.45-14.51 13.14Z" transform="translate(-182.4 -131.71)"></path><path fill="#fe5e5a" d="m1813.8 828.74-1.4 47.74-19.84-44.37.77-28.97h8.76l11.71 25.6z"></path><path fill="#fff" d="M1863 1169.43s9 41.92 2.14 50.28-19.9-30.58-11.53-55.11Z" transform="translate(-182.4 -131.71)"></path><path fill="#292b3b" d="M1868.09 1174.47c-6.56-.62-13-1.48-19.48-2.46 16.89-109.3 21.11-141.91 83.08-233.85 9.48-14.06 13.44-12.94 24.37-3.43 2.47-1.18 2.31-1.36 0 0 10.94 9.51 9.36 12.68-1.08 26.66-68.2 91.4-56.87 105.98-86.89 213.08Z" transform="translate(-182.4 -131.71)"></path><path fill="#fff" d="M1076.7 1615.83a7.93 7.93 0 0 1-7.45-9.75l13.18-55.41a7.92 7.92 0 1 1 15.41 3.66l-13.18 55.41a7.92 7.92 0 0 1-7.96 6.09Z" transform="translate(-182.4 -131.71)"></path><path fill="#1a1c2e" d="M1066.82 1605.51s-4.9 20.36 0 20.93 75.48 2.71 75.89-.57c1.41-11.18-56.28-21.49-61.94-20.36s-13.31-2.95-13.95 0Z" transform="translate(-182.4 -131.71)"></path><path fill="#fff" d="M1410.93 810.12s35-21 36.35-31.24-34.21 6.07-45.82 27.85Z" transform="translate(-182.4 -131.71)"></path><path fill="#292b3b" d="M1415.95 810.79c-5.34-5.63-11-11-16.55-16.16-79.89 79.71-88.59 85.84-175 151.1-13.22 10-4.47 12.61 5.64 23.8-1.54 1.33-1.58 1.3 0 0 10.12 11.19 20.06 3.06 24.57-3.27 29.46-41.4 114.26-97.09 161.34-155.47Z" transform="translate(-182.4 -131.71)"></path><path fill="#fff" d="M1306.05 1616.43a7.93 7.93 0 0 1-9.6-7.65l-.67-56.95a7.92 7.92 0 0 1 15.84-.19l.67 56.95a7.92 7.92 0 0 1-6.24 7.84Z" transform="translate(-182.4 -131.71)"></path><path fill="#3b3e54" d="M1318.31 1578.93a206.88 206.88 0 0 1-25.24 2.1c1.39-136.47-11.22-317.09-99.12-428.9q27.49-20.08 55.34-39.66c67.29 99.05 69.06 349.26 69.02 466.46Z" transform="translate(-182.4 -131.71)"></path><path fill="#3b3e54" d="M1099.17 1577.74c-8.85-1.55-17.64-3.28-26.36-5.43 48.8-129.26 120-300.23 113.21-440.11 23.14 0 46.28.32 69.42.73-18.22 154.21-109.14 297.32-156.27 444.81Z" transform="translate(-182.4 -131.71)"></path><path fill="#1a1c2e" d="M1293.32 1605.51s-4.9 20.36 0 20.93 75.48 2.71 75.89-.57c1.41-11.18-56.28-21.49-61.94-20.36s-13.27-2.95-13.95 0Z" transform="translate(-182.4 -131.71)"></path><path fill="#292b3b" d="M1278.1 1157.81c-13.37-4.47-40.93 2.7-54.23 0-19.58-4-29.22-2.51-48.58-1.37-2.48-60.74-.37-124.28-4.8-183.83-1-12.52-1.59-20 .74-29.37 3.14-12.63 9.72-21.35 18.25-26 10.46-5.73 23.83-5.28 37.35 1.63a30.32 30.32 0 0 1 5.87 3.55c8 6.13 15.41 18.1 16.59 40.68 2.99 56.39 18.17 136.11 28.81 194.71Z" transform="translate(-182.4 -131.71)"></path><path fill="#bef6f7" d="m1232.69 922.44-1.15 38-1.4 47.73-19.84-44.37-20.84-46.55c10.46-5.73 23.83-5.28 37.35 1.63a30.32 30.32 0 0 1 5.88 3.56Z" transform="translate(-182.4 -131.71)"></path><path fill="#fff" d="M1190.21 873.87c6 23.19 27.07 37.78 41.24 34.1s16.1-24.26 10.07-47.44-20.59-32-34.76-28.31-22.58 18.46-16.55 41.65Z" transform="translate(-182.4 -131.71)"></path><path fill="#fff" d="M1181.84 884.57c1.4 5.4 8.56 10.91 12.47 9.89s3.75-5.65 2.34-11-5.89-9.62-9.79-8.61-6.42 4.32-5.02 9.72Z" transform="translate(-182.4 -131.71)"></path><path fill="#fff" d="m1195.27 877.14 25-2.45c.34 3.43 3 36.08 1.69 48.39-.92 3.79-7.16 5.53-13.95 3.88-6.1-1.48-10.52-5.19-10.69-8.68.78-7.37-.89-29.16-2.05-41.14Z" transform="translate(-182.4 -131.71)"></path><path fill="#1a1c2e" d="m1244.25 885.17-1 .16c-4.9.86-27.25 5.14-31.76 12.29-5.07 8 11.25 0 16.83-4.38s9.82-2.12 14.25-2 8.01-4.24 1.68-6.07ZM1183 860s1-16.13 11.26-24.51 32.86-13.29 43 6c0 0 6 14.37-12 20.12s-16.47-4.54-23.77 6.18-16.62 5.47-17.92 7.87Z" transform="translate(-182.4 -131.71)"></path><path fill="#fe5e5a" d="m1049.15 828.74-1.41 47.74-19.84-44.37.78-28.97h8.76l11.71 25.6z"></path><path fill="#fff" d="M1073.87 1169.29s3 42.77-4.92 50.09-15.42-33.06-3.7-56.18Z" transform="translate(-182.4 -131.71)"></path><path fill="#292b3b" d="M1082.5 1175.71a180.26 180.26 0 0 1-20.06-6.08C1093 1067 1110 1033.43 1163.76 945.5c8.24-13.5 17.07-11.38 26.24-.5 2.35-1.74 2.32-1.79 0 0 9.21 10.91 3.07 15-5.72 27.18-57.42 79.94-69.28 107.56-101.78 203.53Z" transform="translate(-182.4 -131.71)"></path><path fill="#fff" d="M2329.42 1498.58a7.93 7.93 0 0 1 2.8-11.95l51.18-25a7.92 7.92 0 1 1 6.95 14.23l-51.18 25a7.92 7.92 0 0 1-9.75-2.28Z" transform="translate(-182.4 -131.71)"></path><path fill="#1a1c2e" d="M2331.73 1484.31s-19.13 8.52-16.6 12.75 43.84 61.5 46.68 59.84c9.73-5.69-17.24-57.73-21.59-61.52s-5.75-12.38-8.49-11.07Z" transform="translate(-182.4 -131.71)"></path><path fill="#fff" d="M2799.78 810.12s35-21 36.35-31.24-34.21 6.07-45.82 27.85Z" transform="translate(-182.4 -131.71)"></path><path fill="#292b3b" d="M2804.79 810.79c-5.34-5.63-11-11-16.55-16.16-79.89 79.71-88.59 85.84-175 151.1-13.22 10-4.47 12.61 5.64 23.8-1.54 1.33-1.58 1.3 0 0 10.12 11.19 20.06 3.06 24.57-3.27 29.46-41.4 114.27-97.09 161.34-155.47Z" transform="translate(-182.4 -131.71)"></path><path fill="#fff" d="M2694.9 1616.43a7.93 7.93 0 0 1-9.6-7.65l-.67-56.95a7.92 7.92 0 0 1 15.84-.19l.67 56.95a7.92 7.92 0 0 1-6.24 7.84Z" transform="translate(-182.4 -131.71)"></path><path fill="#3b3e54" d="M2707.15 1578.93a206.88 206.88 0 0 1-25.24 2.1c1.39-136.47-11.22-317.09-99.12-428.9q27.49-20.08 55.34-39.66c67.3 99.05 69.06 349.26 69.02 466.46Z" transform="translate(-182.4 -131.71)"></path><path fill="#3b3e54" d="M2367.47 1493.44c-3.92-7.82-7.65-15.69-10.92-23.81 171.94-74.59 234.29-134.65 217.77-335.08 23.24-1.54 46.49-2.78 69.76-3.9-22.52 231.89-86.22 265.61-276.61 362.79Z" transform="translate(-182.4 -131.71)"></path><path fill="#1a1c2e" d="M2682.17 1605.51s-4.9 20.36 0 20.93 75.48 2.71 75.89-.57c1.41-11.18-56.28-21.49-61.94-20.36s-13.31-2.95-13.95 0Z" transform="translate(-182.4 -131.71)"></path><path fill="#292b3b" d="M2666.94 1157.81c-13.37-4.47-40.93 2.7-54.23 0-19.58-4-29.22-2.51-48.58-1.37-2.48-60.74-.37-124.28-4.8-183.83-1-12.52-1.59-20 .74-29.37 3.14-12.63 9.72-21.35 18.25-26 10.46-5.73 23.83-5.28 37.35 1.63a30.32 30.32 0 0 1 5.87 3.55c8 6.13 15.41 18.1 16.59 40.68 2.99 56.39 18.17 136.11 28.81 194.71Z" transform="translate(-182.4 -131.71)"></path><path fill="#bef6f7" d="m2621.54 922.44-1.15 38-1.4 47.73-19.84-44.37-20.84-46.55c10.46-5.73 23.83-5.28 37.35 1.63a30.32 30.32 0 0 1 5.88 3.56Z" transform="translate(-182.4 -131.71)"></path><path fill="#fff" d="M2579.06 873.87c6 23.19 27.07 37.78 41.24 34.1s16.1-24.26 10.07-47.44-20.59-32-34.76-28.31-22.61 18.46-16.55 41.65Z" transform="translate(-182.4 -131.71)"></path><path fill="#fff" d="M2570.69 884.57c1.4 5.4 8.56 10.91 12.47 9.89s3.75-5.65 2.34-11-5.89-9.62-9.79-8.61-6.42 4.32-5.02 9.72Z" transform="translate(-182.4 -131.71)"></path><path fill="#fff" d="m2584.11 877.14 25-2.45c.34 3.43 3 36.08 1.69 48.39-.92 3.79-7.16 5.53-13.95 3.88-6.1-1.48-10.52-5.19-10.69-8.68.78-7.37-.88-29.16-2.05-41.14Z" transform="translate(-182.4 -131.71)"></path><path fill="#1a1c2e" d="M2571.85 860s1-16.13 11.26-24.51 32.86-13.29 43 6c0 0 6 14.37-12 20.12s-16.47-4.54-23.77 6.18-16.62 5.47-17.92 7.87Z" transform="translate(-182.4 -131.71)"></path><path fill="#fe5e5a" d="m2437.99 828.74-1.4 47.74-19.84-44.37.78-28.97h8.75l11.71 25.6z"></path><path fill="#d0f1f2" d="M2607.4 1052.33h91.81v123.04h-91.81z" transform="rotate(-4.05 702.547 3628.562)"></path><path fill="#fff" d="M2618.24 1093.87s41.7-10 50.22-3.32-30.1 20.61-54.82 12.82Z" transform="translate(-182.4 -131.71)"></path><path fill="#292b3b" d="M2629.12 1089.79a140 140 0 0 1-2.19 21.12c-116-13.65-188.66-91.42-71.26-176.35 18-13 16.74-7.8 24.82 4.84 2.87-.93 2.83-1.08 0 0 8.08 12.64 5.32 14.88-10.1 24.46-100.8 62.62-20.13 114.14 58.73 125.93Z" transform="translate(-182.4 -131.71)"></path><path fill="#1a1c2e" d="M2382.28 864.4s24.57-4.87 29.61-7.75c8.17-4.66 18.17-18 2.54-23.15s-29.06 2-33.56 11.79 1.41 19.11 1.41 19.11Z" transform="translate(-182.4 -131.71)"></path><path fill="#1a1c2e" d="M2366.6 893.45a8.26 8.26 0 0 0 11.35 4c7-3.56 17.49-9.13 20.19-11.77 6.72-6.58 13-22.06-3.42-23s-27.61 9.3-29.47 19.92a19 19 0 0 0 1.35 10.85Z" transform="translate(-182.4 -131.71)"></path><path fill="#fff" d="M2309.74 1176.37s13.33 40.75 7.4 49.78-23-28.32-17.25-53.6Z" transform="translate(-182.4 -131.71)"></path><path fill="#292b3b" d="M2315.33 1180.85c-6.59.07-13.09-.11-19.63-.4 5.34-110.47 6.12-143.35 58.11-241.27 8-15 12-14.28 23.88-6 2.33-1.43 2.15-1.59 0 0 11.88 8.31 10.63 11.63 1.72 26.62-58.24 98.09-45.41 111.4-64.08 221.05Z" transform="translate(-182.4 -131.71)"></path><path fill="#fff" d="M2132.55 1479.64a7.93 7.93 0 0 1 5.33-11.06l55.38-13.28a7.92 7.92 0 1 1 3.69 15.4l-55.38 13.3a7.92 7.92 0 0 1-9.02-4.36Z" transform="translate(-182.4 -131.71)"></path><path fill="#1a1c2e" d="M2143.76 1465.74s-20.92 1-20.1 5.84 18.46 73.23 21.72 72.72c11.13-1.76 4.93-60 2.27-65.16s-.87-13.61-3.89-13.4Z" transform="translate(-182.4 -131.71)"></path><path fill="#fff" d="M2539.83 913.66s6.23-40.36-.73-47.93-17.24 30.17-7.93 53Z" transform="translate(-182.4 -131.71)"></path><path fill="#292b3b" d="M2549.11 909.07c-7.27-1.44-14.77-2.37-22.29-3.37-7.44 114.4-64.29 176.81-100.75 30.44-5.58-22.39-17.56-10.5-26.78-3-1.78-3.21-1.74-3.26 0 0-9.22 7.5-11.64 4.88-2.38 27.29 60.59 146.57 152.66 91.12 152.2-51.36Z" transform="translate(-182.4 -131.71)"></path><path fill="#fff" d="M2413.37 1616a7.93 7.93 0 0 1-7.77-9.5l11.36-55.81a7.92 7.92 0 1 1 15.52 3.16l-11.36 55.81a7.92 7.92 0 0 1-7.75 6.34Z" transform="translate(-182.4 -131.71)"></path><path fill="#3b3e54" d="M2430.8 1583.58a206.88 206.88 0 0 1-25.22-2.32c25.1-134.15 44.09-314.21-23-439.6q30.56-15 61.39-29.44c49.03 109.25 7.26 355.95-13.17 471.36Z" transform="translate(-182.4 -131.71)"></path><path fill="#3b3e54" d="M2176.77 1485.11c-3-8.32-5.74-16.67-8.11-25.18 183.86-59.84 234.66-145.18 195-338.58 22.73-5 45.59-9.44 68.5-13.6 2.65 224.4-49.69 298.32-255.39 377.36Z" transform="translate(-182.4 -131.71)"></path><path fill="#1a1c2e" d="M2403.46 1605.51s-4.9 20.36 0 20.93 75.48 2.71 75.89-.57c1.41-11.18-56.28-21.49-61.94-20.36s-13.3-2.95-13.95 0Z" transform="translate(-182.4 -131.71)"></path><path fill="#292b3b" d="M2462.3 1157.81c-13.37-4.47-40.93 2.7-54.23 0-19.58-4-29.22-2.51-48.58-1.37-2.48-60.74-.37-124.28-4.8-183.83-1-12.52-1.59-20 .74-29.37 3.14-12.63 9.72-21.35 18.25-26 10.46-5.73 23.83-5.28 37.35 1.63a30.32 30.32 0 0 1 5.87 3.55c8 6.13 15.41 18.1 16.59 40.68 2.99 56.39 18.17 136.11 28.81 194.71Z" transform="translate(-182.4 -131.71)"></path><path fill="#bef6f7" d="m2416.9 922.44-1.15 38-1.4 47.73-19.84-44.37-20.84-46.55c10.46-5.73 23.83-5.28 37.35 1.63a30.32 30.32 0 0 1 5.88 3.56Z" transform="translate(-182.4 -131.71)"></path><path fill="#fff" d="M2376.56 880.47c13.06 20.08 37.64 27.26 49.92 19.28s7.59-28.11-5.47-48.19-29.66-23.83-41.93-15.85-15.58 24.67-2.52 44.76Z" transform="translate(-182.4 -131.71)"></path><path fill="#fff" d="m2379.47 877.14 25-2.45c.34 3.43 3 36.08 1.69 48.39-.92 3.79-7.16 5.53-13.95 3.88-6.1-1.48-10.52-5.19-10.69-8.68.78-7.37-.88-29.16-2.05-41.14Z" transform="translate(-182.4 -131.71)"></path><path fill="#1a1c2e" d="M2425 876.67c-4.37 2.37-11.2 2-13.22 10.19-2.26 9.23.63 2.74 7.12-.1 24.23-10.63 6.64-10.39 6.1-10.09ZM2365.33 869.57s-4.12-15.63 2.92-26.82 27-23 42.73-7.93c0 0 10.22 11.74-5 22.87s-17.06.91-20.59 13.39-14 10.45-14.51 13.14Z" transform="translate(-182.4 -131.71)"></path><path fill="#fe5e5a" d="m2233.35 828.74-1.4 47.74-19.84-44.37.78-28.97h8.75l11.71 25.6z"></path><path fill="#fff" d="M2371.6 890.26c3 4.67 11.57 7.63 15 5.43s1.77-6.54-1.27-11.22-8.63-7.26-12-5.06-4.77 6.18-1.73 10.85Z" transform="translate(-182.4 -131.71)"></path><path fill="none" stroke="#ff9f9c" stroke-miterlimit="10" stroke-width="42" d="M1380.71 598.43c130.66 0 130.66-87.14 261.33-87.14s130.67 87.14 261.33 87.14 130.67-87.14 261.34-87.14 130.67 87.14 261.34 87.14" transform="translate(-182.4 -131.71)"></path><path fill="#ff9f9c" d="m2294.38 466.72-76.08-66.55v133.11l76.08-66.56z"></path><path fill="#fff" d="m2198.02 566.56-40.83-35.72v71.43l40.83-35.71z"></path><circle cx="2136.34" cy="566.56" r="7.58" fill="#fff"></circle><circle cx="2106.34" cy="566.56" r="7.58" fill="#fff"></circle><circle cx="2076.34" cy="566.56" r="7.58" fill="#fff"></circle><circle cx="2046.34" cy="566.56" r="7.58" fill="#fff"></circle><circle cx="2016.34" cy="566.56" r="7.58" fill="#fff"></circle><circle cx="1986.34" cy="566.56" r="7.58" fill="#fff"></circle><circle cx="1956.34" cy="566.56" r="7.58" fill="#fff"></circle><circle cx="1926.34" cy="566.56" r="7.58" fill="#fff"></circle><circle cx="1896.34" cy="566.56" r="7.58" fill="#fff"></circle><circle cx="1866.34" cy="566.56" r="7.58" fill="#fff"></circle><circle cx="1836.34" cy="566.56" r="7.58" fill="#fff"></circle><circle cx="1806.34" cy="566.56" r="7.58" fill="#fff"></circle><circle cx="1776.34" cy="566.56" r="7.58" fill="#fff"></circle><circle cx="1746.34" cy="566.56" r="7.58" fill="#fff"></circle><circle cx="1716.34" cy="566.56" r="7.58" fill="#fff"></circle><path fill="#fff" d="m1257.49 360.25-40.83-35.71v71.43l40.83-35.72z"></path><circle cx="1195.82" cy="360.25" r="7.58" fill="#fff"></circle><circle cx="1165.82" cy="360.25" r="7.58" fill="#fff"></circle><circle cx="1135.82" cy="360.25" r="7.58" fill="#fff"></circle><circle cx="1105.82" cy="360.25" r="7.58" fill="#fff"></circle><circle cx="1075.82" cy="360.25" r="7.58" fill="#fff"></circle><circle cx="1045.82" cy="360.25" r="7.58" fill="#fff"></circle><circle cx="1015.82" cy="360.25" r="7.58" fill="#fff"></circle><circle cx="985.82" cy="360.25" r="7.58" fill="#fff"></circle><circle cx="955.82" cy="360.25" r="7.58" fill="#fff"></circle><circle cx="925.82" cy="360.25" r="7.58" fill="#fff"></circle><circle cx="895.82" cy="360.25" r="7.58" fill="#fff"></circle><circle cx="865.82" cy="360.25" r="7.58" fill="#fff"></circle><circle cx="835.82" cy="360.25" r="7.58" fill="#fff"></circle><circle cx="805.82" cy="360.25" r="7.58" fill="#fff"></circle><circle cx="775.82" cy="360.25" r="7.58" fill="#fff"></circle><path fill="#fff" d="m2495.84 639.02-40.82-35.72v71.43l40.82-35.71z"></path><circle cx="2434.17" cy="639.02" r="7.58" fill="#fff"></circle><circle cx="2404.17" cy="639.02" r="7.58" fill="#fff"></circle><circle cx="2374.17" cy="639.02" r="7.58" fill="#fff"></circle><circle cx="2344.17" cy="639.02" r="7.58" fill="#fff"></circle><circle cx="2314.17" cy="639.02" r="7.58" fill="#fff"></circle><circle cx="2284.17" cy="639.02" r="7.58" fill="#fff"></circle><circle cx="2254.17" cy="639.02" r="7.58" fill="#fff"></circle><circle cx="2224.17" cy="639.02" r="7.58" fill="#fff"></circle><circle cx="2194.17" cy="639.02" r="7.58" fill="#fff"></circle><circle cx="2164.17" cy="639.02" r="7.58" fill="#fff"></circle><circle cx="2134.17" cy="639.02" r="7.58" fill="#fff"></circle><circle cx="2104.17" cy="639.02" r="7.58" fill="#fff"></circle><circle cx="2074.17" cy="639.02" r="7.58" fill="#fff"></circle><circle cx="2044.17" cy="639.02" r="7.58" fill="#fff"></circle><circle cx="2014.17" cy="639.02" r="7.58" fill="#fff"></circle><path fill="#d0f1f2" d="m1959.55 273.83-40.82-44.89v89.79l40.82-44.9zM1825.97 247.83h80v52h-80zM1733.97 247.83h80v52h-80zM1641.97 247.83h80v52h-80zM1549.97 247.83h80v52h-80zM1457.97 247.83h80v52h-80z"></path><path fill="#292b3b" d="M1609.97 572.45h49.57v151.37h-49.57z" transform="rotate(90 1609.415 491.075)"></path><path fill="#292b3b" d="m1582.93 516.42-65.98-57.71v115.43l65.98-57.72z"></path><path fill="none" stroke="#fe5e5a" stroke-miterlimit="10" stroke-width="12" d="m1335.84 627.72 64.32 42 64.32-42 64.33 42 64.33-42 64.33 42 64.34-42 64.34 42 64.34-42"></path><path fill="#fe5e5a" d="m1869.81 608.32-51.37 5.96 45.42 45.41 5.95-51.37z"></path><path fill="#fff" d="M1265.34 1509.81a7.93 7.93 0 0 1 2.11-12.09l49.67-27.87a7.92 7.92 0 1 1 7.75 13.81l-49.67 27.87a7.92 7.92 0 0 1-9.86-1.72Z" transform="translate(-182.4 -131.71)"></path><path fill="#1a1c2e" d="M1266.83 1495.43s-18.62 9.6-15.84 13.68 47.28 58.89 50 57.07c9.38-6.24-20.52-56.64-25.07-60.19s-6.43-11.99-9.09-10.56Z" transform="translate(-182.4 -131.71)"></path><path fill="#fff" d="M1674.22 770.22s7.15-40.2.36-47.93-17.92 29.77-9.14 52.84Z" transform="translate(-182.4 -131.71)"></path><path fill="#292b3b" d="M1677.51 769.62c-6.63-2.41-13.16-5-19.8-7.39-42.43 148.15-90.51 107-161.85 191.34-10.91 12.89-1 18 12.17 23.82-.91 1.41-.95 1.4 0 0 13.14 5.87 15.4-7 17-12.67 10.35-37.15 146.79-75.11 152.48-195.1Z" transform="translate(-182.4 -131.71)"></path><path fill="#fff" d="M1515.16 1616a7.93 7.93 0 0 1-7.77-9.5l11.36-55.81a7.92 7.92 0 1 1 15.52 3.16l-11.36 55.81a7.92 7.92 0 0 1-7.75 6.34Z" transform="translate(-182.4 -131.71)"></path><path fill="#3b3e54" d="M1532.59 1583.58a206.88 206.88 0 0 1-25.22-2.32c25.1-134.15 44.09-314.21-23-439.6q30.56-15 61.39-29.44c49.03 109.25 7.24 355.95-13.17 471.36Z" transform="translate(-182.4 -131.71)"></path><path fill="#3b3e54" d="M1293.94 1506.27c-4.66-7.46-9.12-15-13.15-22.79 162.68-86.14 226-169.52 184.45-361.27 22.73-5.12 45.59-10 68.55-13.92 9.99 217.29-61.37 296.37-239.85 397.98Z" transform="translate(-182.4 -131.71)"></path><path fill="#1a1c2e" d="M1505.26 1605.51s-4.9 20.36 0 20.93 75.48 2.71 75.89-.57c1.41-11.18-56.28-21.49-61.94-20.36s-13.31-2.95-13.95 0Z" transform="translate(-182.4 -131.71)"></path><path fill="#292b3b" d="M1564.1 1157.81c-13.37-4.47-40.93 2.7-54.23 0-19.58-4-29.22-2.51-48.58-1.37-2.48-60.74-.37-124.28-4.8-183.83-1-12.52-1.59-20 .74-29.37 3.14-12.63 9.72-21.35 18.25-26 10.46-5.73 23.83-5.28 37.35 1.63a30.32 30.32 0 0 1 5.87 3.55c8 6.13 15.41 18.1 16.59 40.68 2.98 56.39 18.17 136.11 28.81 194.71Z" transform="translate(-182.4 -131.71)"></path><path fill="#bef6f7" d="m1518.69 922.44-1.15 38-1.4 47.73-19.84-44.37-20.84-46.55c10.46-5.73 23.83-5.28 37.35 1.63a30.32 30.32 0 0 1 5.88 3.56Z" transform="translate(-182.4 -131.71)"></path><path fill="#fff" d="M1478.36 880.47c13.06 20.08 37.64 27.26 49.92 19.28s7.59-28.11-5.47-48.19-29.66-23.83-41.93-15.85-15.59 24.67-2.52 44.76Z" transform="translate(-182.4 -131.71)"></path><path fill="#fff" d="M1473.81 893.26c3 4.67 11.57 7.63 15 5.43s1.77-6.54-1.27-11.22-8.63-7.26-12-5.06-4.77 6.18-1.73 10.85Z" transform="translate(-182.4 -131.71)"></path><path fill="#fff" d="m1481.26 877.14 25-2.45c.34 3.43 3 36.08 1.69 48.39-.92 3.79-7.16 5.53-13.95 3.88-6.1-1.48-10.52-5.19-10.69-8.68.79-7.37-.88-29.16-2.05-41.14Z" transform="translate(-182.4 -131.71)"></path><path fill="#1a1c2e" d="M1467.12 869.57s-4.12-15.63 2.92-26.82 27-23 42.73-7.93c0 0 10.22 11.74-5 22.87s-17.06.91-20.59 13.39-14 10.45-14.51 13.14Z" transform="translate(-182.4 -131.71)"></path><path fill="#fe5e5a" d="m1335.14 828.74-1.4 47.74-19.84-44.37.78-28.97h8.75l11.71 25.6z"></path><path fill="#fff" d="M1368.94 1162.74s5.92 42.47-1.51 50.3-17.63-31.94-7.51-55.8Z" transform="translate(-182.4 -131.71)"></path><path fill="#292b3b" d="M1373.65 1168.13c-6.5-1.1-12.87-2.42-19.25-3.86 24.76-107.79 31.34-140 99.8-227.22 10.47-13.34 14.34-11.93 24.56-1.65 2.55-1 2.4-1.19 0 0 10.22 10.28 8.41 13.32-3 26.51-74.65 86.22-64.42 101.58-102.11 206.22Z" transform="translate(-182.4 -131.71)"></path><path fill="#fff" d="M1552.84 964.19h-494.12V903.3l-138.43 149.49 138.43 149.48v-60.89h494.12V964.19z" opacity=".84"></path><path fill="#1a1c2e" d="M1775.75 841.66s-14.75 1.47-19.75 11 .92 14.63 6.5 12.84 8.75 4.41 17.25-4.09 8.25-17.47-4-19.75Z" transform="translate(-182.4 -131.71)"></path><path fill="#fff" d="M1960.23 1583.08a7.82 7.82 0 0 0 2.46-11.85l-35.38-43.59a7.81 7.81 0 0 0-12.12 9.84l35.38 43.59a7.81 7.81 0 0 0 9.66 2.01Z" transform="translate(-182.4 -131.71)"></path><path fill="#ff9f9c" d="M1964.09 1569.37s13.57 15.56 9.54 18.29-64.72 36.79-66.58 34.11c-6.33-9.12 39.38-44.45 44.84-46s10.29-8.69 12.2-6.4Z" transform="translate(-182.4 -131.71)"></path><path fill="#fff" d="M1764.76 1614.72a7.82 7.82 0 0 0 7.66-9.37l-11.2-55a7.81 7.81 0 0 0-15.3 3.11l11.2 55a7.81 7.81 0 0 0 7.64 6.26Z" transform="translate(-182.4 -131.71)"></path><path fill="#292b3b" d="M1747.58 1582.72a203.94 203.94 0 0 0 24.86-2.29c-24.74-132.24-43.46-309.73 22.69-433.33q-30.12-14.78-60.52-29c-48.34 107.68-7.16 350.9 12.97 464.62Z" transform="translate(-182.4 -131.71)"></path><path fill="#292b3b" d="M1926.28 1562c7.33-4.56 14.52-9.27 21.44-14.45-107.51-131.36-152.4-252.89-134.63-423.74q-33.9-3.76-67.87-6.69c7 183.07 75.24 301.64 181.06 444.88Z" transform="translate(-182.4 -131.71)"></path><path fill="#ff9f9c" d="M1774.53 1604.34s4.83 20.07 0 20.63-74.4 2.67-74.81-.56c-1.39-11 55.48-21.19 61.05-20.07s13.13-2.91 13.76 0ZM1716.53 1163c13.18-4.41 40.35 2.66 53.46 0 19.3-3.93 28.81-2.48 47.89-1.35 2.44-59.87.36-122.51 4.73-181.21.95-12.35 1.57-19.7-.73-29-3.1-12.45-9.58-21-18-25.6-10.31-5.64-23.49-5.21-36.82 1.6a29.89 29.89 0 0 0-5.79 3.5c-7.9 6-15.19 17.84-16.35 40.1-2.92 55.63-17.92 134.22-28.39 191.96Z" transform="translate(-182.4 -131.71)"></path><path fill="#fff" d="M1834.1 1139.43s-40 13.76-43.54 23.78 35.94 1.24 52.39-18.31Z" transform="translate(-182.4 -131.71)"></path><path fill="#ff9f9c" d="M1831.08 1135.78c3.69 6 7.59 12 11.19 17.63 101-79.44 94.65-127.34-14.85-211.4-16.75-12.86-17.5-9.8-25.6 2.87-3-1-3-1.15 0 0-8.1 12.67-1.75 16.3 11.45 26.4 86.37 66.02 105.2 101.72 17.81 164.5Z" transform="translate(-182.4 -131.71)"></path><path fill="#fff" d="M1614.4 1074.27s-41.46-8.19-46.37-17.64 35.44-6.11 54.39 11Z" transform="translate(-182.4 -131.71)"></path><path fill="#ff9f9c" d="M1609.91 1082.13c-.55-7.7-.23-15.44-.19-23.53 94-1.6 145.72 28.76 169.51-108.11 3.64-20.94 8-19.78 22.12-13.42 2.11-2.45 2-2.51 0 0 14.12 6.36 12.92 10.42 6.36 29.76-42.93 126.44-81.07 118.17-197.8 115.3Z" transform="translate(-182.4 -131.71)"></path><path fill="#fff" d="M1801 889.64c-12.88 19.8-37.11 26.88-49.2 19s-7.48-27.71 5.39-47.5 29.24-23.49 41.34-15.62 15.39 24.32 2.47 44.12Z" transform="translate(-182.4 -131.71)"></path><path fill="#fff" d="m1798.18 886.36-24.69-2.41c-.33 3.38-2.92 35.57-1.67 47.7.91 3.74 7.06 5.45 13.75 3.83 6-1.46 10.37-5.11 10.53-8.55-.71-7.29.9-28.76 2.08-40.57Z" transform="translate(-182.4 -131.71)"></path><path fill="#1a1c2e" d="M1791.47 899.1c-3.64-3.94-5.66-.13-14.42 4.79s-32.25 7.91-29.39-19.79c.9-8.71-1.83-1.62-3.73 4-1.25 3.7-3.71 7.87-3.93 11.77-.39 6.83 0 14.33 5.2 18.6 9.8 8.07 19.41 8.92 36-2.19a28.36 28.36 0 0 0 10.28-12c.91-2.07 1.23-3.84-.01-5.18ZM1812.12 878.9s4.07-15.4-2.88-26.44-26.57-22.68-42.12-7.82c0 0-10.08 11.57 4.91 22.54s16.82.9 20.29 13.2 13.84 10.3 14.3 13Z" transform="translate(-182.4 -131.71)"></path><path fill="#2b596e" d="m1565.11 940.2 6.06 32.18 20.37-30.83 8.65-130.02h-8.63l-26.45 128.67z"></path><path fill="#fff" d="M1807.46 900.68c-3 4.61-11.41 7.53-14.74 5.36S1791 899.58 1794 895s8.51-7.16 11.84-5 4.62 6.07 1.62 10.68Z" transform="translate(-182.4 -131.71)"></path><path fill="#1a1c2e" d="M1745.2 889.2s5.05-7.94 10.8-5.25 11.64 3.67 13.87 11.93 3.67 14.7 0 15.91c-10.12 3.34-6.75-4.93-6.06-12.54s-6.57-14.12-9.69-11.62a83.2 83.2 0 0 0-7.87 8Z" transform="translate(-182.4 -131.71)"></path></svg>